# xmcd
#
# Track frame offsets:
#	150
#	22919
#	43130
#	64151
#	87473
#	98560
#	116846
#	136994
#	153258
#	169644
#	189344
#
# Disc length: 2745 seconds
#
# Revision: 0
# Processed by: cddbd v1.5.2PL0 Copyright (c) Steve Scherf et al.
# Submitted via: dBpowerAMP V4.0
#
DISCID=880ab70b
DTITLE=Evan Wetserlund - Still Crazy
DYEAR=1900
DGENRE=
TTITLE0=Still Crazy
TTITLE1=Kisses Won´t Cut In
TTITLE2=One Chance
TTITLE3=Who´s Gonna Take Care Of The Horses
TTITLE4=Can´t Stop Wonderin´
TTITLE5=Watin´For My Train
TTITLE6=Springtime In Nebraska
TTITLE7=Don´t You Worry ´Bout Me(Duet with Amy Courts)
TTITLE8=Sunday Mornin´
TTITLE9=Give Me Some Twang
TTITLE10=Can´t Sleep For Thinkin´
EXTD=
EXTT0=
EXTT1=
EXTT2=
EXTT3=
EXTT4=
EXTT5=
EXTT6=
EXTT7=
EXTT8=
EXTT9=
EXTT10=
PLAYORDER=
